<svg width="850" height="575" viewBox="0 0 850 575" fill="none" xmlns="http://www.w3.org/2000/svg">
<path d="M0.972508 575V557.68H21.7704V575H22.7429V557.68H43.5408V575H44.5133V557.68H65.3112V575H66.2838V557.68H87.0817V575H88.0542V557.68H108.852V575H109.825V557.68H130.622V575H131.595V557.68H152.393V575H153.365V557.68H174.163V575H175.136V557.68H195.934V575H196.906V557.68H217.704V575H218.677V557.68H239.475V575H240.447V557.68H261.245V575H262.214V557.68H283.012V575H283.985V557.68H304.783V575H305.755V557.68H326.553V575H327.526V557.68H348.324V575H349.296V557.68H370.091V575H371.063V557.68H391.861V575H392.834V557.68H413.629V575H414.601V557.68H435.399V575H436.371V557.68H457.169V575H458.142V557.68H478.94V575H479.912V557.68H500.71V575H501.683V557.68H522.481V575H523.453V557.68H544.251V575H545.224V557.68H566.021V575H566.994V557.68H587.792V575H588.764V557.68H609.562V575H610.535V557.68H631.333V575H632.305V557.68H653.103V575H654.076V557.68H674.874V575H675.846V557.68H696.644V575H697.616V557.68H718.414V575H719.387V557.68H740.182V575H741.154V557.68H761.952V575H762.925V557.68H783.719V575H784.692V557.68H805.49V575H806.462V557.68H827.257V575H828.23V557.68H849.028V575H850V0H849.028V7.37285H828.23V0H827.257V7.37285H806.462V0H805.49V7.37285H784.692V0H783.719V7.37285H762.925V0H761.952V7.37285H741.154V0H740.182V7.37285H719.387V0H718.414V7.37285H697.616V0H696.644V7.37285H675.846V0H674.874V7.37285H654.076V0H653.103V7.37285H632.305V0H631.333V7.37285H610.535V0H609.562V7.37285H588.764V0H587.792V7.37285H566.994V0H566.021V7.37285H545.224V0H544.251V7.37285H523.453V0H522.481V7.37285H501.683V0H500.71V7.37285H479.912V0H478.94V7.37285H458.142V0H457.169V7.37285H436.371V0H435.399V7.37285H414.601V0H413.629V7.37285H392.834V0H391.861V7.37285H371.063V0H370.091V7.37285H349.296V0H348.324V7.37285H327.526V0H326.553V7.37285H305.755V0H304.783V7.37285H283.985V0H283.012V7.37285H262.214V0H261.245V7.37285H240.447V0H239.475V7.37285H218.677V0H217.704V7.37285H196.906V0H195.934V7.37285H175.136V0H174.163V7.37285H153.365V0H152.393V7.37285H131.595V0H130.622V7.37285H109.825V0H108.852V7.37285H88.0542V0H87.0817V7.37285H66.2838V0H65.3112V7.37285H44.5133V0H43.5408V7.37285H22.7398V0H21.7673V7.37285H0.972508V0H0V575H0.972508ZM828.158 8.3578H848.956V31.2586H828.158V8.3578ZM828.158 32.2404H848.956V55.1412H828.158V32.2404ZM828.158 56.1261H848.956V79.0269H828.158V56.1261ZM828.158 80.0087H848.956V102.91H828.158V80.0087ZM828.158 103.891H848.956V126.792H828.158V103.891ZM828.158 127.777H848.956V150.678H828.158V127.777ZM828.158 151.66H848.956V174.56H828.158V151.66ZM828.158 175.542H848.956V198.443H828.158V175.542ZM828.158 199.425H848.956V222.326H828.158V199.425ZM828.158 223.311H848.956V246.211H828.158V223.311ZM828.158 247.193H848.956V270.094H828.158V247.193ZM828.158 271.079H848.956V293.98H828.158V271.079ZM828.158 294.962H848.956V317.862H828.158V294.962ZM828.158 318.844H848.956V341.745H828.158V318.844ZM828.158 342.73H848.956V365.631H828.158V342.73ZM828.158 366.612H848.956V389.513H828.158V366.612ZM828.158 390.495H848.956V413.396H828.158V390.495ZM828.158 414.381H848.956V437.282H828.158V414.381ZM828.158 438.263H848.956V461.164H828.158V438.263ZM828.158 462.146H848.956V485.047H828.158V462.146ZM828.158 486.032H848.956V508.933H828.158V486.032ZM828.158 509.914H848.956V532.815H828.158V509.914ZM828.158 533.797H848.956V556.698H828.158V533.797ZM806.39 8.3578H827.185V31.2586H806.39V8.3578ZM806.39 32.2404H827.185V55.1412H806.39V32.2404ZM806.39 56.1261H827.185V79.0269H806.39V56.1261ZM806.39 80.0087H827.185V102.91H806.39V80.0087ZM806.39 103.891H827.185V126.792H806.39V103.891ZM806.39 127.777H827.185V150.678H806.39V127.777ZM806.39 151.66H827.185V174.56H806.39V151.66ZM806.39 175.542H827.185V198.443H806.39V175.542ZM806.39 199.425H827.185V222.326H806.39V199.425ZM806.39 223.311H827.185V246.211H806.39V223.311ZM806.39 247.193H827.185V270.094H806.39V247.193ZM806.39 271.079H827.185V293.98H806.39V271.079ZM806.39 294.962H827.185V317.862H806.39V294.962ZM806.39 318.844H827.185V341.745H806.39V318.844ZM806.39 342.73H827.185V365.631H806.39V342.73ZM806.39 366.612H827.185V389.513H806.39V366.612ZM806.39 390.495H827.185V413.396H806.39V390.495ZM806.39 414.381H827.185V437.282H806.39V414.381ZM806.39 438.263H827.185V461.164H806.39V438.263ZM806.39 462.146H827.185V485.047H806.39V462.146ZM806.39 486.032H827.185V508.933H806.39V486.032ZM806.39 509.914H827.185V532.815H806.39V509.914ZM806.39 533.797H827.185V556.698H806.39V533.797ZM784.62 8.3578H805.418V31.2586H784.62V8.3578ZM784.62 32.2404H805.418V55.1412H784.62V32.2404ZM784.62 56.1261H805.418V79.0269H784.62V56.1261ZM784.62 80.0087H805.418V102.91H784.62V80.0087ZM784.62 103.891H805.418V126.792H784.62V103.891ZM784.62 127.777H805.418V150.678H784.62V127.777ZM784.62 151.66H805.418V174.56H784.62V151.66ZM784.62 175.542H805.418V198.443H784.62V175.542ZM784.62 199.425H805.418V222.326H784.62V199.425ZM784.62 223.311H805.418V246.211H784.62V223.311ZM784.62 247.193H805.418V270.094H784.62V247.193ZM784.62 271.079H805.418V293.98H784.62V271.079ZM784.62 294.962H805.418V317.862H784.62V294.962ZM784.62 318.844H805.418V341.745H784.62V318.844ZM784.62 342.73H805.418V365.631H784.62V342.73ZM784.62 366.612H805.418V389.513H784.62V366.612ZM784.62 390.495H805.418V413.396H784.62V390.495ZM784.62 414.381H805.418V437.282H784.62V414.381ZM784.62 438.263H805.418V461.164H784.62V438.263ZM784.62 462.146H805.418V485.047H784.62V462.146ZM784.62 486.032H805.418V508.933H784.62V486.032ZM784.62 509.914H805.418V532.815H784.62V509.914ZM784.62 533.797H805.418V556.698H784.62V533.797ZM762.853 8.3578H783.647V31.2586H762.853V8.3578ZM762.853 32.2404H783.647V55.1412H762.853V32.2404ZM762.853 56.1261H783.647V79.0269H762.853V56.1261ZM762.853 80.0087H783.647V102.91H762.853V80.0087ZM762.853 103.891H783.647V126.792H762.853V103.891ZM762.853 127.777H783.647V150.678H762.853V127.777ZM762.853 151.66H783.647V174.56H762.853V151.66ZM762.853 175.542H783.647V198.443H762.853V175.542ZM762.853 199.425H783.647V222.326H762.853V199.425ZM762.853 223.311H783.647V246.211H762.853V223.311ZM762.853 247.193H783.647V270.094H762.853V247.193ZM762.853 271.079H783.647V293.98H762.853V271.079ZM762.853 294.962H783.647V317.862H762.853V294.962ZM762.853 318.844H783.647V341.745H762.853V318.844ZM762.853 342.73H783.647V365.631H762.853V342.73ZM762.853 366.612H783.647V389.513H762.853V366.612ZM762.853 390.495H783.647V413.396H762.853V390.495ZM762.853 414.381H783.647V437.282H762.853V414.381ZM762.853 438.263H783.647V461.164H762.853V438.263ZM762.853 462.146H783.647V485.047H762.853V462.146ZM762.853 486.032H783.647V508.933H762.853V486.032ZM762.853 509.914H783.647V532.815H762.853V509.914ZM762.853 533.797H783.647V556.698H762.853V533.797ZM741.085 8.3578H761.883V31.2586H741.085V8.3578ZM741.085 32.2404H761.883V55.1412H741.085V32.2404ZM741.085 56.1261H761.883V79.0269H741.085V56.1261ZM741.085 80.0087H761.883V102.91H741.085V80.0087ZM741.085 103.891H761.883V126.792H741.085V103.891ZM741.085 127.777H761.883V150.678H741.085V127.777ZM741.085 151.66H761.883V174.56H741.085V151.66ZM741.085 175.542H761.883V198.443H741.085V175.542ZM741.085 199.425H761.883V222.326H741.085V199.425ZM741.085 223.311H761.883V246.211H741.085V223.311ZM741.085 247.193H761.883V270.094H741.085V247.193ZM741.085 271.079H761.883V293.98H741.085V271.079ZM741.085 294.962H761.883V317.862H741.085V294.962ZM741.085 318.844H761.883V341.745H741.085V318.844ZM741.085 342.73H761.883V365.631H741.085V342.73ZM741.085 366.612H761.883V389.513H741.085V366.612ZM741.085 390.495H761.883V413.396H741.085V390.495ZM741.085 414.381H761.883V437.282H741.085V414.381ZM741.085 438.263H761.883V461.164H741.085V438.263ZM741.085 462.146H761.883V485.047H741.085V462.146ZM741.085 486.032H761.883V508.933H741.085V486.032ZM741.085 509.914H761.883V532.815H741.085V509.914ZM741.085 533.797H761.883V556.698H741.085V533.797ZM719.318 8.3578H740.113V31.2586H719.318V8.3578ZM719.318 32.2404H740.113V55.1412H719.318V32.2404ZM719.318 56.1261H740.113V79.0269H719.318V56.1261ZM719.318 80.0087H740.113V102.91H719.318V80.0087ZM719.318 103.891H740.113V126.792H719.318V103.891ZM719.318 127.777H740.113V150.678H719.318V127.777ZM719.318 151.66H740.113V174.56H719.318V151.66ZM719.318 175.542H740.113V198.443H719.318V175.542ZM719.318 199.425H740.113V222.326H719.318V199.425ZM719.318 223.311H740.113V246.211H719.318V223.311ZM719.318 247.193H740.113V270.094H719.318V247.193ZM719.318 271.079H740.113V293.98H719.318V271.079ZM719.318 294.962H740.113V317.862H719.318V294.962ZM719.318 318.844H740.113V341.745H719.318V318.844ZM719.318 342.73H740.113V365.631H719.318V342.73ZM719.318 366.612H740.113V389.513H719.318V366.612ZM719.318 390.495H740.113V413.396H719.318V390.495ZM719.318 414.381H740.113V437.282H719.318V414.381ZM719.318 438.263H740.113V461.164H719.318V438.263ZM719.318 462.146H740.113V485.047H719.318V462.146ZM719.318 486.032H740.113V508.933H719.318V486.032ZM719.318 509.914H740.113V532.815H719.318V509.914ZM719.318 533.797H740.113V556.698H719.318V533.797ZM697.548 8.3578H718.346V31.2586H697.548V8.3578ZM697.548 32.2404H718.346V55.1412H697.548V32.2404ZM697.548 56.1261H718.346V79.0269H697.548V56.1261ZM697.548 80.0087H718.346V102.91H697.548V80.0087ZM697.548 103.891H718.346V126.792H697.548V103.891ZM697.548 127.777H718.346V150.678H697.548V127.777ZM697.548 151.66H718.346V174.56H697.548V151.66ZM697.548 175.542H718.346V198.443H697.548V175.542ZM697.548 199.425H718.346V222.326H697.548V199.425ZM697.548 223.311H718.346V246.211H697.548V223.311ZM697.548 247.193H718.346V270.094H697.548V247.193ZM697.548 271.079H718.346V293.98H697.548V271.079ZM697.548 294.962H718.346V317.862H697.548V294.962ZM697.548 318.844H718.346V341.745H697.548V318.844ZM697.548 342.73H718.346V365.631H697.548V342.73ZM697.548 366.612H718.346V389.513H697.548V366.612ZM697.548 390.495H718.346V413.396H697.548V390.495ZM697.548 414.381H718.346V437.282H697.548V414.381ZM697.548 438.263H718.346V461.164H697.548V438.263ZM697.548 462.146H718.346V485.047H697.548V462.146ZM697.548 486.032H718.346V508.933H697.548V486.032ZM697.548 509.914H718.346V532.815H697.548V509.914ZM697.548 533.797H718.346V556.698H697.548V533.797ZM675.78 8.3578H696.578V31.2586H675.78V8.3578ZM675.78 32.2404H696.578V55.1412H675.78V32.2404ZM675.78 56.1261H696.578V79.0269H675.78V56.1261ZM675.78 80.0087H696.578V102.91H675.78V80.0087ZM675.78 103.891H696.578V126.792H675.78V103.891ZM675.78 127.777H696.578V150.678H675.78V127.777ZM675.78 151.66H696.578V174.56H675.78V151.66ZM675.78 175.542H696.578V198.443H675.78V175.542ZM675.78 199.425H696.578V222.326H675.78V199.425ZM675.78 223.311H696.578V246.211H675.78V223.311ZM675.78 247.193H696.578V270.094H675.78V247.193ZM675.78 271.079H696.578V293.98H675.78V271.079ZM675.78 294.962H696.578V317.862H675.78V294.962ZM675.78 318.844H696.578V341.745H675.78V318.844ZM675.78 342.73H696.578V365.631H675.78V342.73ZM675.78 366.612H696.578V389.513H675.78V366.612ZM675.78 390.495H696.578V413.396H675.78V390.495ZM675.78 414.381H696.578V437.282H675.78V414.381ZM675.78 438.263H696.578V461.164H675.78V438.263ZM675.78 462.146H696.578V485.047H675.78V462.146ZM675.78 486.032H696.578V508.933H675.78V486.032ZM675.78 509.914H696.578V532.815H675.78V509.914ZM675.78 533.797H696.578V556.698H675.78V533.797ZM654.013 8.3578H674.811V31.2586H654.013V8.3578ZM654.013 32.2404H674.811V55.1412H654.013V32.2404ZM654.013 56.1261H674.811V79.0269H654.013V56.1261ZM654.013 80.0087H674.811V102.91H654.013V80.0087ZM654.013 103.891H674.811V126.792H654.013V103.891ZM654.013 127.777H674.811V150.678H654.013V127.777ZM654.013 151.66H674.811V174.56H654.013V151.66ZM654.013 175.542H674.811V198.443H654.013V175.542ZM654.013 199.425H674.811V222.326H654.013V199.425ZM654.013 223.311H674.811V246.211H654.013V223.311ZM654.013 247.193H674.811V270.094H654.013V247.193ZM654.013 271.079H674.811V293.98H654.013V271.079ZM654.013 294.962H674.811V317.862H654.013V294.962ZM654.013 318.844H674.811V341.745H654.013V318.844ZM654.013 342.73H674.811V365.631H654.013V342.73ZM654.013 366.612H674.811V389.513H654.013V366.612ZM654.013 390.495H674.811V413.396H654.013V390.495ZM654.013 414.381H674.811V437.282H654.013V414.381ZM654.013 438.263H674.811V461.164H654.013V438.263ZM654.013 462.146H674.811V485.047H654.013V462.146ZM654.013 486.032H674.811V508.933H654.013V486.032ZM654.013 509.914H674.811V532.815H654.013V509.914ZM654.013 533.797H674.811V556.698H654.013V533.797ZM632.246 8.3578H653.044V31.2586H632.246V8.3578ZM632.246 32.2404H653.044V55.1412H632.246V32.2404ZM632.246 56.1261H653.044V79.0269H632.246V56.1261ZM632.246 80.0087H653.044V102.91H632.246V80.0087ZM632.246 103.891H653.044V126.792H632.246V103.891ZM632.246 127.777H653.044V150.678H632.246V127.777ZM632.246 151.66H653.044V174.56H632.246V151.66ZM632.246 175.542H653.044V198.443H632.246V175.542ZM632.246 199.425H653.044V222.326H632.246V199.425ZM632.246 223.311H653.044V246.211H632.246V223.311ZM632.246 247.193H653.044V270.094H632.246V247.193ZM632.246 271.079H653.044V293.98H632.246V271.079ZM632.246 294.962H653.044V317.862H632.246V294.962ZM632.246 318.844H653.044V341.745H632.246V318.844ZM632.246 342.73H653.044V365.631H632.246V342.73ZM632.246 366.612H653.044V389.513H632.246V366.612ZM632.246 390.495H653.044V413.396H632.246V390.495ZM632.246 414.381H653.044V437.282H632.246V414.381ZM632.246 438.263H653.044V461.164H632.246V438.263ZM632.246 462.146H653.044V485.047H632.246V462.146ZM632.246 486.032H653.044V508.933H632.246V486.032ZM632.246 509.914H653.044V532.815H632.246V509.914ZM632.246 533.797H653.044V556.698H632.246V533.797ZM610.475 8.3578H631.273V31.2586H610.475V8.3578ZM610.475 32.2404H631.273V55.1412H610.475V32.2404ZM610.475 56.1261H631.273V79.0269H610.475V56.1261ZM610.475 80.0087H631.273V102.91H610.475V80.0087ZM610.475 103.891H631.273V126.792H610.475V103.891ZM610.475 127.777H631.273V150.678H610.475V127.777ZM610.475 151.66H631.273V174.56H610.475V151.66ZM610.475 175.542H631.273V198.443H610.475V175.542ZM610.475 199.425H631.273V222.326H610.475V199.425ZM610.475 223.311H631.273V246.211H610.475V223.311ZM610.475 247.193H631.273V270.094H610.475V247.193ZM610.475 271.079H631.273V293.98H610.475V271.079ZM610.475 294.962H631.273V317.862H610.475V294.962ZM610.475 318.844H631.273V341.745H610.475V318.844ZM610.475 342.73H631.273V365.631H610.475V342.73ZM610.475 366.612H631.273V389.513H610.475V366.612ZM610.475 390.495H631.273V413.396H610.475V390.495ZM610.475 414.381H631.273V437.282H610.475V414.381ZM610.475 438.263H631.273V461.164H610.475V438.263ZM610.475 462.146H631.273V485.047H610.475V462.146ZM610.475 486.032H631.273V508.933H610.475V486.032ZM610.475 509.914H631.273V532.815H610.475V509.914ZM610.475 533.797H631.273V556.698H610.475V533.797ZM588.708 8.3578H609.506V31.2586H588.708V8.3578ZM588.708 32.2404H609.506V55.1412H588.708V32.2404ZM588.708 56.1261H609.506V79.0269H588.708V56.1261ZM588.708 80.0087H609.506V102.91H588.708V80.0087ZM588.708 103.891H609.506V126.792H588.708V103.891ZM588.708 127.777H609.506V150.678H588.708V127.777ZM588.708 151.66H609.506V174.56H588.708V151.66ZM588.708 175.542H609.506V198.443H588.708V175.542ZM588.708 199.425H609.506V222.326H588.708V199.425ZM588.708 223.311H609.506V246.211H588.708V223.311ZM588.708 247.193H609.506V270.094H588.708V247.193ZM588.708 271.079H609.506V293.98H588.708V271.079ZM588.708 294.962H609.506V317.862H588.708V294.962ZM588.708 318.844H609.506V341.745H588.708V318.844ZM588.708 342.73H609.506V365.631H588.708V342.73ZM588.708 366.612H609.506V389.513H588.708V366.612ZM588.708 390.495H609.506V413.396H588.708V390.495ZM588.708 414.381H609.506V437.282H588.708V414.381ZM588.708 438.263H609.506V461.164H588.708V438.263ZM588.708 462.146H609.506V485.047H588.708V462.146ZM588.708 486.032H609.506V508.933H588.708V486.032ZM588.708 509.914H609.506V532.815H588.708V509.914ZM588.708 533.797H609.506V556.698H588.708V533.797ZM566.941 8.3578H587.739V31.2586H566.941V8.3578ZM566.941 32.2404H587.739V55.1412H566.941V32.2404ZM566.941 56.1261H587.739V79.0269H566.941V56.1261ZM566.941 80.0087H587.739V102.91H566.941V80.0087ZM566.941 103.891H587.739V126.792H566.941V103.891ZM566.941 127.777H587.739V150.678H566.941V127.777ZM566.941 151.66H587.739V174.56H566.941V151.66ZM566.941 175.542H587.739V198.443H566.941V175.542ZM566.941 199.425H587.739V222.326H566.941V199.425ZM566.941 223.311H587.739V246.211H566.941V223.311ZM566.941 247.193H587.739V270.094H566.941V247.193ZM566.941 271.079H587.739V293.98H566.941V271.079ZM566.941 294.962H587.739V317.862H566.941V294.962ZM566.941 318.844H587.739V341.745H566.941V318.844ZM566.941 342.73H587.739V365.631H566.941V342.73ZM566.941 366.612H587.739V389.513H566.941V366.612ZM566.941 390.495H587.739V413.396H566.941V390.495ZM566.941 414.381H587.739V437.282H566.941V414.381ZM566.941 438.263H587.739V461.164H566.941V438.263ZM566.941 462.146H587.739V485.047H566.941V462.146ZM566.941 486.032H587.739V508.933H566.941V486.032ZM566.941 509.914H587.739V532.815H566.941V509.914ZM566.941 533.797H587.739V556.698H566.941V533.797ZM545.174 8.3578H565.971V31.2586H545.174V8.3578ZM545.174 32.2404H565.971V55.1412H545.174V32.2404ZM545.174 56.1261H565.971V79.0269H545.174V56.1261ZM545.174 80.0087H565.971V102.91H545.174V80.0087ZM545.174 103.891H565.971V126.792H545.174V103.891ZM545.174 127.777H565.971V150.678H545.174V127.777ZM545.174 151.66H565.971V174.56H545.174V151.66ZM545.174 175.542H565.971V198.443H545.174V175.542ZM545.174 199.425H565.971V222.326H545.174V199.425ZM545.174 223.311H565.971V246.211H545.174V223.311ZM545.174 247.193H565.971V270.094H545.174V247.193ZM545.174 271.079H565.971V293.98H545.174V271.079ZM545.174 294.962H565.971V317.862H545.174V294.962ZM545.174 318.844H565.971V341.745H545.174V318.844ZM545.174 342.73H565.971V365.631H545.174V342.73ZM545.174 366.612H565.971V389.513H545.174V366.612ZM545.174 390.495H565.971V413.396H545.174V390.495ZM545.174 414.381H565.971V437.282H545.174V414.381ZM545.174 438.263H565.971V461.164H545.174V438.263ZM545.174 462.146H565.971V485.047H545.174V462.146ZM545.174 486.032H565.971V508.933H545.174V486.032ZM545.174 509.914H565.971V532.815H545.174V509.914ZM545.174 533.797H565.971V556.698H545.174V533.797ZM523.403 8.3578H544.201V31.2586H523.403V8.3578ZM523.403 32.2404H544.201V55.1412H523.403V32.2404ZM523.403 56.1261H544.201V79.0269H523.403V56.1261ZM523.403 80.0087H544.201V102.91H523.403V80.0087ZM523.403 103.891H544.201V126.792H523.403V103.891ZM523.403 127.777H544.201V150.678H523.403V127.777ZM523.403 151.66H544.201V174.56H523.403V151.66ZM523.403 175.542H544.201V198.443H523.403V175.542ZM523.403 199.425H544.201V222.326H523.403V199.425ZM523.403 223.311H544.201V246.211H523.403V223.311ZM523.403 247.193H544.201V270.094H523.403V247.193ZM523.403 271.079H544.201V293.98H523.403V271.079ZM523.403 294.962H544.201V317.862H523.403V294.962ZM523.403 318.844H544.201V341.745H523.403V318.844ZM523.403 342.73H544.201V365.631H523.403V342.73ZM523.403 366.612H544.201V389.513H523.403V366.612ZM523.403 390.495H544.201V413.396H523.403V390.495ZM523.403 414.381H544.201V437.282H523.403V414.381ZM523.403 438.263H544.201V461.164H523.403V438.263ZM523.403 462.146H544.201V485.047H523.403V462.146ZM523.403 486.032H544.201V508.933H523.403V486.032ZM523.403 509.914H544.201V532.815H523.403V509.914ZM523.403 533.797H544.201V556.698H523.403V533.797ZM501.636 8.3578H522.434V31.2586H501.636V8.3578ZM501.636 32.2404H522.434V55.1412H501.636V32.2404ZM501.636 56.1261H522.434V79.0269H501.636V56.1261ZM501.636 80.0087H522.434V102.91H501.636V80.0087ZM501.636 103.891H522.434V126.792H501.636V103.891ZM501.636 127.777H522.434V150.678H501.636V127.777ZM501.636 151.66H522.434V174.56H501.636V151.66ZM501.636 175.542H522.434V198.443H501.636V175.542ZM501.636 199.425H522.434V222.326H501.636V199.425ZM501.636 223.311H522.434V246.211H501.636V223.311ZM501.636 247.193H522.434V270.094H501.636V247.193ZM501.636 271.079H522.434V293.98H501.636V271.079ZM501.636 294.962H522.434V317.862H501.636V294.962ZM501.636 318.844H522.434V341.745H501.636V318.844ZM501.636 342.73H522.434V365.631H501.636V342.73ZM501.636 366.612H522.434V389.513H501.636V366.612ZM501.636 390.495H522.434V413.396H501.636V390.495ZM501.636 414.381H522.434V437.282H501.636V414.381ZM501.636 438.263H522.434V461.164H501.636V438.263ZM501.636 462.146H522.434V485.047H501.636V462.146ZM501.636 486.032H522.434V508.933H501.636V486.032ZM501.636 509.914H522.434V532.815H501.636V509.914ZM501.636 533.797H522.434V556.698H501.636V533.797ZM479.868 8.3578H500.666V31.2586H479.868V8.3578ZM479.868 32.2404H500.666V55.1412H479.868V32.2404ZM479.868 56.1261H500.666V79.0269H479.868V56.1261ZM479.868 80.0087H500.666V102.91H479.868V80.0087ZM479.868 103.891H500.666V126.792H479.868V103.891ZM479.868 127.777H500.666V150.678H479.868V127.777ZM479.868 151.66H500.666V174.56H479.868V151.66ZM479.868 175.542H500.666V198.443H479.868V175.542ZM479.868 199.425H500.666V222.326H479.868V199.425ZM479.868 223.311H500.666V246.211H479.868V223.311ZM479.868 247.193H500.666V270.094H479.868V247.193ZM479.868 271.079H500.666V293.98H479.868V271.079ZM479.868 294.962H500.666V317.862H479.868V294.962ZM479.868 318.844H500.666V341.745H479.868V318.844ZM479.868 342.73H500.666V365.631H479.868V342.73ZM479.868 366.612H500.666V389.513H479.868V366.612ZM479.868 390.495H500.666V413.396H479.868V390.495ZM479.868 414.381H500.666V437.282H479.868V414.381ZM479.868 438.263H500.666V461.164H479.868V438.263ZM479.868 462.146H500.666V485.047H479.868V462.146ZM479.868 486.032H500.666V508.933H479.868V486.032ZM479.868 509.914H500.666V532.815H479.868V509.914ZM479.868 533.797H500.666V556.698H479.868V533.797ZM458.101 8.3578H478.899V31.2586H458.101V8.3578ZM458.101 32.2404H478.899V55.1412H458.101V32.2404ZM458.101 56.1261H478.899V79.0269H458.101V56.1261ZM458.101 80.0087H478.899V102.91H458.101V80.0087ZM458.101 103.891H478.899V126.792H458.101V103.891ZM458.101 127.777H478.899V150.678H458.101V127.777ZM458.101 151.66H478.899V174.56H458.101V151.66ZM458.101 175.542H478.899V198.443H458.101V175.542ZM458.101 199.425H478.899V222.326H458.101V199.425ZM458.101 223.311H478.899V246.211H458.101V223.311ZM458.101 247.193H478.899V270.094H458.101V247.193ZM458.101 271.079H478.899V293.98H458.101V271.079ZM458.101 294.962H478.899V317.862H458.101V294.962ZM458.101 318.844H478.899V341.745H458.101V318.844ZM458.101 342.73H478.899V365.631H458.101V342.73ZM458.101 366.612H478.899V389.513H458.101V366.612ZM458.101 390.495H478.899V413.396H458.101V390.495ZM458.101 414.381H478.899V437.282H458.101V414.381ZM458.101 438.263H478.899V461.164H458.101V438.263ZM458.101 462.146H478.899V485.047H458.101V462.146ZM458.101 486.032H478.899V508.933H458.101V486.032ZM458.101 509.914H478.899V532.815H458.101V509.914ZM458.101 533.797H478.899V556.698H458.101V533.797ZM436.331 8.3578H457.129V31.2586H436.331V8.3578ZM436.331 32.2404H457.129V55.1412H436.331V32.2404ZM436.331 56.1261H457.129V79.0269H436.331V56.1261ZM436.331 80.0087H457.129V102.91H436.331V80.0087ZM436.331 103.891H457.129V126.792H436.331V103.891ZM436.331 127.777H457.129V150.678H436.331V127.777ZM436.331 151.66H457.129V174.56H436.331V151.66ZM436.331 175.542H457.129V198.443H436.331V175.542ZM436.331 199.425H457.129V222.326H436.331V199.425ZM436.331 223.311H457.129V246.211H436.331V223.311ZM436.331 247.193H457.129V270.094H436.331V247.193ZM436.331 271.079H457.129V293.98H436.331V271.079ZM436.331 294.962H457.129V317.862H436.331V294.962ZM436.331 318.844H457.129V341.745H436.331V318.844ZM436.331 342.73H457.129V365.631H436.331V342.73ZM436.331 366.612H457.129V389.513H436.331V366.612ZM436.331 390.495H457.129V413.396H436.331V390.495ZM436.331 414.381H457.129V437.282H436.331V414.381ZM436.331 438.263H457.129V461.164H436.331V438.263ZM436.331 462.146H457.129V485.047H436.331V462.146ZM436.331 486.032H457.129V508.933H436.331V486.032ZM436.331 509.914H457.129V532.815H436.331V509.914ZM436.331 533.797H457.129V556.698H436.331V533.797ZM414.564 8.3578H435.361V31.2586H414.564V8.3578ZM414.564 32.2404H435.361V55.1412H414.564V32.2404ZM414.564 56.1261H435.361V79.0269H414.564V56.1261ZM414.564 80.0087H435.361V102.91H414.564V80.0087ZM414.564 103.891H435.361V126.792H414.564V103.891ZM414.564 127.777H435.361V150.678H414.564V127.777ZM414.564 151.66H435.361V174.56H414.564V151.66ZM414.564 175.542H435.361V198.443H414.564V175.542ZM414.564 199.425H435.361V222.326H414.564V199.425ZM414.564 223.311H435.361V246.211H414.564V223.311ZM414.564 247.193H435.361V270.094H414.564V247.193ZM414.564 271.079H435.361V293.98H414.564V271.079ZM414.564 294.962H435.361V317.862H414.564V294.962ZM414.564 318.844H435.361V341.745H414.564V318.844ZM414.564 342.73H435.361V365.631H414.564V342.73ZM414.564 366.612H435.361V389.513H414.564V366.612ZM414.564 390.495H435.361V413.396H414.564V390.495ZM414.564 414.381H435.361V437.282H414.564V414.381ZM414.564 438.263H435.361V461.164H414.564V438.263ZM414.564 462.146H435.361V485.047H414.564V462.146ZM414.564 486.032H435.361V508.933H414.564V486.032ZM414.564 509.914H435.361V532.815H414.564V509.914ZM414.564 533.797H435.361V556.698H414.564V533.797ZM392.796 8.3578H413.591V31.2586H392.796V8.3578ZM392.796 32.2404H413.591V55.1412H392.796V32.2404ZM392.796 56.1261H413.591V79.0269H392.796V56.1261ZM392.796 80.0087H413.591V102.91H392.796V80.0087ZM392.796 103.891H413.591V126.792H392.796V103.891ZM392.796 127.777H413.591V150.678H392.796V127.777ZM392.796 151.66H413.591V174.56H392.796V151.66ZM392.796 175.542H413.591V198.443H392.796V175.542ZM392.796 199.425H413.591V222.326H392.796V199.425ZM392.796 223.311H413.591V246.211H392.796V223.311ZM392.796 247.193H413.591V270.094H392.796V247.193ZM392.796 271.079H413.591V293.98H392.796V271.079ZM392.796 294.962H413.591V317.862H392.796V294.962ZM392.796 318.844H413.591V341.745H392.796V318.844ZM392.796 342.73H413.591V365.631H392.796V342.73ZM392.796 366.612H413.591V389.513H392.796V366.612ZM392.796 390.495H413.591V413.396H392.796V390.495ZM392.796 414.381H413.591V437.282H392.796V414.381ZM392.796 438.263H413.591V461.164H392.796V438.263ZM392.796 462.146H413.591V485.047H392.796V462.146ZM392.796 486.032H413.591V508.933H392.796V486.032ZM392.796 509.914H413.591V532.815H392.796V509.914ZM392.796 533.797H413.591V556.698H392.796V533.797ZM371.029 8.3578H391.827V31.2586H371.029V8.3578ZM371.029 32.2404H391.827V55.1412H371.029V32.2404ZM371.029 56.1261H391.827V79.0269H371.029V56.1261ZM371.029 80.0087H391.827V102.91H371.029V80.0087ZM371.029 103.891H391.827V126.792H371.029V103.891ZM371.029 127.777H391.827V150.678H371.029V127.777ZM371.029 151.66H391.827V174.56H371.029V151.66ZM371.029 175.542H391.827V198.443H371.029V175.542ZM371.029 199.425H391.827V222.326H371.029V199.425ZM371.029 223.311H391.827V246.211H371.029V223.311ZM371.029 247.193H391.827V270.094H371.029V247.193ZM371.029 271.079H391.827V293.98H371.029V271.079ZM371.029 294.962H391.827V317.862H371.029V294.962ZM371.029 318.844H391.827V341.745H371.029V318.844ZM371.029 342.73H391.827V365.631H371.029V342.73ZM371.029 366.612H391.827V389.513H371.029V366.612ZM371.029 390.495H391.827V413.396H371.029V390.495ZM371.029 414.381H391.827V437.282H371.029V414.381ZM371.029 438.263H391.827V461.164H371.029V438.263ZM371.029 462.146H391.827V485.047H371.029V462.146ZM371.029 486.032H391.827V508.933H371.029V486.032ZM371.029 509.914H391.827V532.815H371.029V509.914ZM371.029 533.797H391.827V556.698H371.029V533.797ZM349.262 8.3578H370.056V31.2586H349.262V8.3578ZM349.262 32.2404H370.056V55.1412H349.262V32.2404ZM349.262 56.1261H370.056V79.0269H349.262V56.1261ZM349.262 80.0087H370.056V102.91H349.262V80.0087ZM349.262 103.891H370.056V126.792H349.262V103.891ZM349.262 127.777H370.056V150.678H349.262V127.777ZM349.262 151.66H370.056V174.56H349.262V151.66ZM349.262 175.542H370.056V198.443H349.262V175.542ZM349.262 199.425H370.056V222.326H349.262V199.425ZM349.262 223.311H370.056V246.211H349.262V223.311ZM349.262 247.193H370.056V270.094H349.262V247.193ZM349.262 271.079H370.056V293.98H349.262V271.079ZM349.262 294.962H370.056V317.862H349.262V294.962ZM349.262 318.844H370.056V341.745H349.262V318.844ZM349.262 342.73H370.056V365.631H349.262V342.73ZM349.262 366.612H370.056V389.513H349.262V366.612ZM349.262 390.495H370.056V413.396H349.262V390.495ZM349.262 414.381H370.056V437.282H349.262V414.381ZM349.262 438.263H370.056V461.164H349.262V438.263ZM349.262 462.146H370.056V485.047H349.262V462.146ZM349.262 486.032H370.056V508.933H349.262V486.032ZM349.262 509.914H370.056V532.815H349.262V509.914ZM349.262 533.797H370.056V556.698H349.262V533.797ZM327.491 8.3578H348.289V31.2586H327.491V8.3578ZM327.491 32.2404H348.289V55.1412H327.491V32.2404ZM327.491 56.1261H348.289V79.0269H327.491V56.1261ZM327.491 80.0087H348.289V102.91H327.491V80.0087ZM327.491 103.891H348.289V126.792H327.491V103.891ZM327.491 127.777H348.289V150.678H327.491V127.777ZM327.491 151.66H348.289V174.56H327.491V151.66ZM327.491 175.542H348.289V198.443H327.491V175.542ZM327.491 199.425H348.289V222.326H327.491V199.425ZM327.491 223.311H348.289V246.211H327.491V223.311ZM327.491 247.193H348.289V270.094H327.491V247.193ZM327.491 271.079H348.289V293.98H327.491V271.079ZM327.491 294.962H348.289V317.862H327.491V294.962ZM327.491 318.844H348.289V341.745H327.491V318.844ZM327.491 342.73H348.289V365.631H327.491V342.73ZM327.491 366.612H348.289V389.513H327.491V366.612ZM327.491 390.495H348.289V413.396H327.491V390.495ZM327.491 414.381H348.289V437.282H327.491V414.381ZM327.491 438.263H348.289V461.164H327.491V438.263ZM327.491 462.146H348.289V485.047H327.491V462.146ZM327.491 486.032H348.289V508.933H327.491V486.032ZM327.491 509.914H348.289V532.815H327.491V509.914ZM327.491 533.797H348.289V556.698H327.491V533.797ZM305.724 8.3578H326.522V31.2586H305.724V8.3578ZM305.724 32.2404H326.522V55.1412H305.724V32.2404ZM305.724 56.1261H326.522V79.0269H305.724V56.1261ZM305.724 80.0087H326.522V102.91H305.724V80.0087ZM305.724 103.891H326.522V126.792H305.724V103.891ZM305.724 127.777H326.522V150.678H305.724V127.777ZM305.724 151.66H326.522V174.56H305.724V151.66ZM305.724 175.542H326.522V198.443H305.724V175.542ZM305.724 199.425H326.522V222.326H305.724V199.425ZM305.724 223.311H326.522V246.211H305.724V223.311ZM305.724 247.193H326.522V270.094H305.724V247.193ZM305.724 271.079H326.522V293.98H305.724V271.079ZM305.724 294.962H326.522V317.862H305.724V294.962ZM305.724 318.844H326.522V341.745H305.724V318.844ZM305.724 342.73H326.522V365.631H305.724V342.73ZM305.724 366.612H326.522V389.513H305.724V366.612ZM305.724 390.495H326.522V413.396H305.724V390.495ZM305.724 414.381H326.522V437.282H305.724V414.381ZM305.724 438.263H326.522V461.164H305.724V438.263ZM305.724 462.146H326.522V485.047H305.724V462.146ZM305.724 486.032H326.522V508.933H305.724V486.032ZM305.724 509.914H326.522V532.815H305.724V509.914ZM305.724 533.797H326.522V556.698H305.724V533.797ZM283.957 8.3578H304.755V31.2586H283.957V8.3578ZM283.957 32.2404H304.755V55.1412H283.957V32.2404ZM283.957 56.1261H304.755V79.0269H283.957V56.1261ZM283.957 80.0087H304.755V102.91H283.957V80.0087ZM283.957 103.891H304.755V126.792H283.957V103.891ZM283.957 127.777H304.755V150.678H283.957V127.777ZM283.957 151.66H304.755V174.56H283.957V151.66ZM283.957 175.542H304.755V198.443H283.957V175.542ZM283.957 199.425H304.755V222.326H283.957V199.425ZM283.957 223.311H304.755V246.211H283.957V223.311ZM283.957 247.193H304.755V270.094H283.957V247.193ZM283.957 271.079H304.755V293.98H283.957V271.079ZM283.957 294.962H304.755V317.862H283.957V294.962ZM283.957 318.844H304.755V341.745H283.957V318.844ZM283.957 342.73H304.755V365.631H283.957V342.73ZM283.957 366.612H304.755V389.513H283.957V366.612ZM283.957 390.495H304.755V413.396H283.957V390.495ZM283.957 414.381H304.755V437.282H283.957V414.381ZM283.957 438.263H304.755V461.164H283.957V438.263ZM283.957 462.146H304.755V485.047H283.957V462.146ZM283.957 486.032H304.755V508.933H283.957V486.032ZM283.957 509.914H304.755V532.815H283.957V509.914ZM283.957 533.797H304.755V556.698H283.957V533.797ZM262.189 8.3578H282.987V31.2586H262.189V8.3578ZM262.189 32.2404H282.987V55.1412H262.189V32.2404ZM262.189 56.1261H282.987V79.0269H262.189V56.1261ZM262.189 80.0087H282.987V102.91H262.189V80.0087ZM262.189 103.891H282.987V126.792H262.189V103.891ZM262.189 127.777H282.987V150.678H262.189V127.777ZM262.189 151.66H282.987V174.56H262.189V151.66ZM262.189 175.542H282.987V198.443H262.189V175.542ZM262.189 199.425H282.987V222.326H262.189V199.425ZM262.189 223.311H282.987V246.211H262.189V223.311ZM262.189 247.193H282.987V270.094H262.189V247.193ZM262.189 271.079H282.987V293.98H262.189V271.079ZM262.189 294.962H282.987V317.862H262.189V294.962ZM262.189 318.844H282.987V341.745H262.189V318.844ZM262.189 342.73H282.987V365.631H262.189V342.73ZM262.189 366.612H282.987V389.513H262.189V366.612ZM262.189 390.495H282.987V413.396H262.189V390.495ZM262.189 414.381H282.987V437.282H262.189V414.381ZM262.189 438.263H282.987V461.164H262.189V438.263ZM262.189 462.146H282.987V485.047H262.189V462.146ZM262.189 486.032H282.987V508.933H262.189V486.032ZM262.189 509.914H282.987V532.815H262.189V509.914ZM262.189 533.797H282.987V556.698H262.189V533.797ZM240.419 8.3578H261.217V31.2586H240.419V8.3578ZM240.419 32.2404H261.217V55.1412H240.419V32.2404ZM240.419 56.1261H261.217V79.0269H240.419V56.1261ZM240.419 80.0087H261.217V102.91H240.419V80.0087ZM240.419 103.891H261.217V126.792H240.419V103.891ZM240.419 127.777H261.217V150.678H240.419V127.777ZM240.419 151.66H261.217V174.56H240.419V151.66ZM240.419 175.542H261.217V198.443H240.419V175.542ZM240.419 199.425H261.217V222.326H240.419V199.425ZM240.419 223.311H261.217V246.211H240.419V223.311ZM240.419 247.193H261.217V270.094H240.419V247.193ZM240.419 271.079H261.217V293.98H240.419V271.079ZM240.419 294.962H261.217V317.862H240.419V294.962ZM240.419 318.844H261.217V341.745H240.419V318.844ZM240.419 342.73H261.217V365.631H240.419V342.73ZM240.419 366.612H261.217V389.513H240.419V366.612ZM240.419 390.495H261.217V413.396H240.419V390.495ZM240.419 414.381H261.217V437.282H240.419V414.381ZM240.419 438.263H261.217V461.164H240.419V438.263ZM240.419 462.146H261.217V485.047H240.419V462.146ZM240.419 486.032H261.217V508.933H240.419V486.032ZM240.419 509.914H261.217V532.815H240.419V509.914ZM240.419 533.797H261.217V556.698H240.419V533.797ZM218.652 8.3578H239.45V31.2586H218.652V8.3578ZM218.652 32.2404H239.45V55.1412H218.652V32.2404ZM218.652 56.1261H239.45V79.0269H218.652V56.1261ZM218.652 80.0087H239.45V102.91H218.652V80.0087ZM218.652 103.891H239.45V126.792H218.652V103.891ZM218.652 127.777H239.45V150.678H218.652V127.777ZM218.652 151.66H239.45V174.56H218.652V151.66ZM218.652 175.542H239.45V198.443H218.652V175.542ZM218.652 199.425H239.45V222.326H218.652V199.425ZM218.652 223.311H239.45V246.211H218.652V223.311ZM218.652 247.193H239.45V270.094H218.652V247.193ZM218.652 271.079H239.45V293.98H218.652V271.079ZM218.652 294.962H239.45V317.862H218.652V294.962ZM218.652 318.844H239.45V341.745H218.652V318.844ZM218.652 342.73H239.45V365.631H218.652V342.73ZM218.652 366.612H239.45V389.513H218.652V366.612ZM218.652 390.495H239.45V413.396H218.652V390.495ZM218.652 414.381H239.45V437.282H218.652V414.381ZM218.652 438.263H239.45V461.164H218.652V438.263ZM218.652 462.146H239.45V485.047H218.652V462.146ZM218.652 486.032H239.45V508.933H218.652V486.032ZM218.652 509.914H239.45V532.815H218.652V509.914ZM218.652 533.797H239.45V556.698H218.652V533.797ZM196.884 8.3578H217.682V31.2586H196.884V8.3578ZM196.884 32.2404H217.682V55.1412H196.884V32.2404ZM196.884 56.1261H217.682V79.0269H196.884V56.1261ZM196.884 80.0087H217.682V102.91H196.884V80.0087ZM196.884 103.891H217.682V126.792H196.884V103.891ZM196.884 127.777H217.682V150.678H196.884V127.777ZM196.884 151.66H217.682V174.56H196.884V151.66ZM196.884 175.542H217.682V198.443H196.884V175.542ZM196.884 199.425H217.682V222.326H196.884V199.425ZM196.884 223.311H217.682V246.211H196.884V223.311ZM196.884 247.193H217.682V270.094H196.884V247.193ZM196.884 271.079H217.682V293.98H196.884V271.079ZM196.884 294.962H217.682V317.862H196.884V294.962ZM196.884 318.844H217.682V341.745H196.884V318.844ZM196.884 342.73H217.682V365.631H196.884V342.73ZM196.884 366.612H217.682V389.513H196.884V366.612ZM196.884 390.495H217.682V413.396H196.884V390.495ZM196.884 414.381H217.682V437.282H196.884V414.381ZM196.884 438.263H217.682V461.164H196.884V438.263ZM196.884 462.146H217.682V485.047H196.884V462.146ZM196.884 486.032H217.682V508.933H196.884V486.032ZM196.884 509.914H217.682V532.815H196.884V509.914ZM196.884 533.797H217.682V556.698H196.884V533.797ZM175.117 8.3578H195.915V31.2586H175.117V8.3578ZM175.117 32.2404H195.915V55.1412H175.117V32.2404ZM175.117 56.1261H195.915V79.0269H175.117V56.1261ZM175.117 80.0087H195.915V102.91H175.117V80.0087ZM175.117 103.891H195.915V126.792H175.117V103.891ZM175.117 127.777H195.915V150.678H175.117V127.777ZM175.117 151.66H195.915V174.56H175.117V151.66ZM175.117 175.542H195.915V198.443H175.117V175.542ZM175.117 199.425H195.915V222.326H175.117V199.425ZM175.117 223.311H195.915V246.211H175.117V223.311ZM175.117 247.193H195.915V270.094H175.117V247.193ZM175.117 271.079H195.915V293.98H175.117V271.079ZM175.117 294.962H195.915V317.862H175.117V294.962ZM175.117 318.844H195.915V341.745H175.117V318.844ZM175.117 342.73H195.915V365.631H175.117V342.73ZM175.117 366.612H195.915V389.513H175.117V366.612ZM175.117 390.495H195.915V413.396H175.117V390.495ZM175.117 414.381H195.915V437.282H175.117V414.381ZM175.117 438.263H195.915V461.164H175.117V438.263ZM175.117 462.146H195.915V485.047H175.117V462.146ZM175.117 486.032H195.915V508.933H175.117V486.032ZM175.117 509.914H195.915V532.815H175.117V509.914ZM175.117 533.797H195.915V556.698H175.117V533.797ZM153.347 8.3578H174.145V31.2586H153.347V8.3578ZM153.347 32.2404H174.145V55.1412H153.347V32.2404ZM153.347 56.1261H174.145V79.0269H153.347V56.1261ZM153.347 80.0087H174.145V102.91H153.347V80.0087ZM153.347 103.891H174.145V126.792H153.347V103.891ZM153.347 127.777H174.145V150.678H153.347V127.777ZM153.347 151.66H174.145V174.56H153.347V151.66ZM153.347 175.542H174.145V198.443H153.347V175.542ZM153.347 199.425H174.145V222.326H153.347V199.425ZM153.347 223.311H174.145V246.211H153.347V223.311ZM153.347 247.193H174.145V270.094H153.347V247.193ZM153.347 271.079H174.145V293.98H153.347V271.079ZM153.347 294.962H174.145V317.862H153.347V294.962ZM153.347 318.844H174.145V341.745H153.347V318.844ZM153.347 342.73H174.145V365.631H153.347V342.73ZM153.347 366.612H174.145V389.513H153.347V366.612ZM153.347 390.495H174.145V413.396H153.347V390.495ZM153.347 414.381H174.145V437.282H153.347V414.381ZM153.347 438.263H174.145V461.164H153.347V438.263ZM153.347 462.146H174.145V485.047H153.347V462.146ZM153.347 486.032H174.145V508.933H153.347V486.032ZM153.347 509.914H174.145V532.815H153.347V509.914ZM153.347 533.797H174.145V556.698H153.347V533.797ZM131.579 8.3578H152.377V31.2586H131.579V8.3578ZM131.579 32.2404H152.377V55.1412H131.579V32.2404ZM131.579 56.1261H152.377V79.0269H131.579V56.1261ZM131.579 80.0087H152.377V102.91H131.579V80.0087ZM131.579 103.891H152.377V126.792H131.579V103.891ZM131.579 127.777H152.377V150.678H131.579V127.777ZM131.579 151.66H152.377V174.56H131.579V151.66ZM131.579 175.542H152.377V198.443H131.579V175.542ZM131.579 199.425H152.377V222.326H131.579V199.425ZM131.579 223.311H152.377V246.211H131.579V223.311ZM131.579 247.193H152.377V270.094H131.579V247.193ZM131.579 271.079H152.377V293.98H131.579V271.079ZM131.579 294.962H152.377V317.862H131.579V294.962ZM131.579 318.844H152.377V341.745H131.579V318.844ZM131.579 342.73H152.377V365.631H131.579V342.73ZM131.579 366.612H152.377V389.513H131.579V366.612ZM131.579 390.495H152.377V413.396H131.579V390.495ZM131.579 414.381H152.377V437.282H131.579V414.381ZM131.579 438.263H152.377V461.164H131.579V438.263ZM131.579 462.146H152.377V485.047H131.579V462.146ZM131.579 486.032H152.377V508.933H131.579V486.032ZM131.579 509.914H152.377V532.815H131.579V509.914ZM131.579 533.797H152.377V556.698H131.579V533.797ZM109.812 8.3578H130.61V31.2586H109.812V8.3578ZM109.812 32.2404H130.61V55.1412H109.812V32.2404ZM109.812 56.1261H130.61V79.0269H109.812V56.1261ZM109.812 80.0087H130.61V102.91H109.812V80.0087ZM109.812 103.891H130.61V126.792H109.812V103.891ZM109.812 127.777H130.61V150.678H109.812V127.777ZM109.812 151.66H130.61V174.56H109.812V151.66ZM109.812 175.542H130.61V198.443H109.812V175.542ZM109.812 199.425H130.61V222.326H109.812V199.425ZM109.812 223.311H130.61V246.211H109.812V223.311ZM109.812 247.193H130.61V270.094H109.812V247.193ZM109.812 271.079H130.61V293.98H109.812V271.079ZM109.812 294.962H130.61V317.862H109.812V294.962ZM109.812 318.844H130.61V341.745H109.812V318.844ZM109.812 342.73H130.61V365.631H109.812V342.73ZM109.812 366.612H130.61V389.513H109.812V366.612ZM109.812 390.495H130.61V413.396H109.812V390.495ZM109.812 414.381H130.61V437.282H109.812V414.381ZM109.812 438.263H130.61V461.164H109.812V438.263ZM109.812 462.146H130.61V485.047H109.812V462.146ZM109.812 486.032H130.61V508.933H109.812V486.032ZM109.812 509.914H130.61V532.815H109.812V509.914ZM109.812 533.797H130.61V556.698H109.812V533.797ZM88.0448 8.3578H108.843V31.2586H88.0448V8.3578ZM88.0448 32.2404H108.843V55.1412H88.0448V32.2404ZM88.0448 56.1261H108.843V79.0269H88.0448V56.1261ZM88.0448 80.0087H108.843V102.91H88.0448V80.0087ZM88.0448 103.891H108.843V126.792H88.0448V103.891ZM88.0448 127.777H108.843V150.678H88.0448V127.777ZM88.0448 151.66H108.843V174.56H88.0448V151.66ZM88.0448 175.542H108.843V198.443H88.0448V175.542ZM88.0448 199.425H108.843V222.326H88.0448V199.425ZM88.0448 223.311H108.843V246.211H88.0448V223.311ZM88.0448 247.193H108.843V270.094H88.0448V247.193ZM88.0448 271.079H108.843V293.98H88.0448V271.079ZM88.0448 294.962H108.843V317.862H88.0448V294.962ZM88.0448 318.844H108.843V341.745H88.0448V318.844ZM88.0448 342.73H108.843V365.631H88.0448V342.73ZM88.0448 366.612H108.843V389.513H88.0448V366.612ZM88.0448 390.495H108.843V413.396H88.0448V390.495ZM88.0448 414.381H108.843V437.282H88.0448V414.381ZM88.0448 438.263H108.843V461.164H88.0448V438.263ZM88.0448 462.146H108.843V485.047H88.0448V462.146ZM88.0448 486.032H108.843V508.933H88.0448V486.032ZM88.0448 509.914H108.843V532.815H88.0448V509.914ZM88.0448 533.797H108.843V556.698H88.0448V533.797ZM66.2744 8.3578H87.0723V31.2586H66.2744V8.3578ZM66.2744 32.2404H87.0723V55.1412H66.2744V32.2404ZM66.2744 56.1261H87.0723V79.0269H66.2744V56.1261ZM66.2744 80.0087H87.0723V102.91H66.2744V80.0087ZM66.2744 103.891H87.0723V126.792H66.2744V103.891ZM66.2744 127.777H87.0723V150.678H66.2744V127.777ZM66.2744 151.66H87.0723V174.56H66.2744V151.66ZM66.2744 175.542H87.0723V198.443H66.2744V175.542ZM66.2744 199.425H87.0723V222.326H66.2744V199.425ZM66.2744 223.311H87.0723V246.211H66.2744V223.311ZM66.2744 247.193H87.0723V270.094H66.2744V247.193ZM66.2744 271.079H87.0723V293.98H66.2744V271.079ZM66.2744 294.962H87.0723V317.862H66.2744V294.962ZM66.2744 318.844H87.0723V341.745H66.2744V318.844ZM66.2744 342.73H87.0723V365.631H66.2744V342.73ZM66.2744 366.612H87.0723V389.513H66.2744V366.612ZM66.2744 390.495H87.0723V413.396H66.2744V390.495ZM66.2744 414.381H87.0723V437.282H66.2744V414.381ZM66.2744 438.263H87.0723V461.164H66.2744V438.263ZM66.2744 462.146H87.0723V485.047H66.2744V462.146ZM66.2744 486.032H87.0723V508.933H66.2744V486.032ZM66.2744 509.914H87.0723V532.815H66.2744V509.914ZM66.2744 533.797H87.0723V556.698H66.2744V533.797ZM44.5071 8.3578H65.305V31.2586H44.5071V8.3578ZM44.5071 32.2404H65.305V55.1412H44.5071V32.2404ZM44.5071 56.1261H65.305V79.0269H44.5071V56.1261ZM44.5071 80.0087H65.305V102.91H44.5071V80.0087ZM44.5071 103.891H65.305V126.792H44.5071V103.891ZM44.5071 127.777H65.305V150.678H44.5071V127.777ZM44.5071 151.66H65.305V174.56H44.5071V151.66ZM44.5071 175.542H65.305V198.443H44.5071V175.542ZM44.5071 199.425H65.305V222.326H44.5071V199.425ZM44.5071 223.311H65.305V246.211H44.5071V223.311ZM44.5071 247.193H65.305V270.094H44.5071V247.193ZM44.5071 271.079H65.305V293.98H44.5071V271.079ZM44.5071 294.962H65.305V317.862H44.5071V294.962ZM44.5071 318.844H65.305V341.745H44.5071V318.844ZM44.5071 342.73H65.305V365.631H44.5071V342.73ZM44.5071 366.612H65.305V389.513H44.5071V366.612ZM44.5071 390.495H65.305V413.396H44.5071V390.495ZM44.5071 414.381H65.305V437.282H44.5071V414.381ZM44.5071 438.263H65.305V461.164H44.5071V438.263ZM44.5071 462.146H65.305V485.047H44.5071V462.146ZM44.5071 486.032H65.305V508.933H44.5071V486.032ZM44.5071 509.914H65.305V532.815H44.5071V509.914ZM44.5071 533.797H65.305V556.698H44.5071V533.797ZM22.7398 8.3578H43.5377V31.2586H22.7398V8.3578ZM22.7398 32.2404H43.5377V55.1412H22.7398V32.2404ZM22.7398 56.1261H43.5377V79.0269H22.7398V56.1261ZM22.7398 80.0087H43.5377V102.91H22.7398V80.0087ZM22.7398 103.891H43.5377V126.792H22.7398V103.891ZM22.7398 127.777H43.5377V150.678H22.7398V127.777ZM22.7398 151.66H43.5377V174.56H22.7398V151.66ZM22.7398 175.542H43.5377V198.443H22.7398V175.542ZM22.7398 199.425H43.5377V222.326H22.7398V199.425ZM22.7398 223.311H43.5377V246.211H22.7398V223.311ZM22.7398 247.193H43.5377V270.094H22.7398V247.193ZM22.7398 271.079H43.5377V293.98H22.7398V271.079ZM22.7398 294.962H43.5377V317.862H22.7398V294.962ZM22.7398 318.844H43.5377V341.745H22.7398V318.844ZM22.7398 342.73H43.5377V365.631H22.7398V342.73ZM22.7398 366.612H43.5377V389.513H22.7398V366.612ZM22.7398 390.495H43.5377V413.396H22.7398V390.495ZM22.7398 414.381H43.5377V437.282H22.7398V414.381ZM22.7398 438.263H43.5377V461.164H22.7398V438.263ZM22.7398 462.146H43.5377V485.047H22.7398V462.146ZM22.7398 486.032H43.5377V508.933H22.7398V486.032ZM22.7398 509.914H43.5377V532.815H22.7398V509.914ZM22.7398 533.797H43.5377V556.698H22.7398V533.797ZM0.972508 8.3578H21.7704V31.2586H0.972508V8.3578ZM0.972508 32.2404H21.7704V55.1412H0.972508V32.2404ZM0.972508 56.1261H21.7704V79.0269H0.972508V56.1261ZM0.972508 80.0087H21.7704V102.91H0.972508V80.0087ZM0.972508 103.891H21.7704V126.792H0.972508V103.891ZM0.972508 127.777H21.7704V150.678H0.972508V127.777ZM0.972508 151.66H21.7704V174.56H0.972508V151.66ZM0.972508 175.542H21.7704V198.443H0.972508V175.542ZM0.972508 199.425H21.7704V222.326H0.972508V199.425ZM0.972508 223.311H21.7704V246.211H0.972508V223.311ZM0.972508 247.193H21.7704V270.094H0.972508V247.193ZM0.972508 271.079H21.7704V293.98H0.972508V271.079ZM0.972508 294.962H21.7704V317.862H0.972508V294.962ZM0.972508 318.844H21.7704V341.745H0.972508V318.844ZM0.972508 342.73H21.7704V365.631H0.972508V342.73ZM0.972508 366.612H21.7704V389.513H0.972508V366.612ZM0.972508 390.495H21.7704V413.396H0.972508V390.495ZM0.972508 414.381H21.7704V437.282H0.972508V414.381ZM0.972508 438.263H21.7704V461.164H0.972508V438.263ZM0.972508 462.146H21.7704V485.047H0.972508V462.146ZM0.972508 486.032H21.7704V508.933H0.972508V486.032ZM0.972508 509.914H21.7704V532.815H0.972508V509.914ZM0.972508 533.797H21.7704V556.698H0.972508V533.797Z" fill="url(#paint0_radial_221_975)"/>
<defs>
<radialGradient id="paint0_radial_221_975" cx="0" cy="0" r="1" gradientUnits="userSpaceOnUse" gradientTransform="translate(413.5 315.5) rotate(-19.7655) scale(861.114 872.128)">
<stop offset="0.0049505" stop-color="#FEB71E"/>
<stop offset="0.4375" stop-color="#161412"/>
</radialGradient>
</defs>
</svg>
