<svg width="25" height="30" viewBox="0 0 33 37" fill="none" xmlns="http://www.w3.org/2000/svg">
<path d="M32.8397 27.4474C32.7713 28.1446 32.5243 28.812 32.1214 29.3831C31.7389 29.9369 31.2274 30.3894 30.6311 30.7016C30.0348 31.0138 29.3715 31.1763 28.6984 31.1752H23.4501C23.3613 31.6481 23.2299 32.1083 23.0559 32.5556C22.6943 33.4374 22.1648 34.2406 21.4968 34.9205C20.8214 35.5983 20.0174 36.1343 19.1319 36.4971C18.2883 36.8352 17.3869 37.006 16.478 36.9998H16.2818C15.3512 37.001 14.4302 36.812 13.5753 36.4445C12.7033 36.0836 11.9111 35.5543 11.2438 34.887C10.5765 34.2197 10.0472 33.4275 9.68629 32.5556C9.5028 32.1119 9.37055 31.6488 9.29214 31.1752H4.21897C3.55875 31.2264 2.89606 31.1142 2.28955 30.8484C1.68304 30.5826 1.1514 30.1713 0.741668 29.6511C0.348991 29.0207 0.104593 28.3094 0.0269077 27.5708C-0.0507773 26.8321 0.0402796 26.0855 0.293211 25.3872C0.680356 24.3502 1.21115 23.3727 1.86982 22.4828C2.62068 21.5695 3.12167 20.477 3.3238 19.312C3.3238 14.1145 3.3238 12.375 6.15469 9.00628C7.08817 7.89066 8.24846 6.98655 9.55841 6.35408L10.9756 5.67438C11.036 5.64146 11.0853 5.59151 11.1175 5.53074C11.1826 5.46796 11.2267 5.38657 11.2436 5.29775C11.4562 4.10457 12.0926 3.02833 13.0357 2.26716C13.2686 2.09369 13.5512 2 13.8415 2C14.1319 2 14.4145 2.09369 14.6474 2.26716C14.8858 2.43625 15.0645 2.67648 15.158 2.95341C15.2514 3.23034 15.2548 3.52975 15.1676 3.80873C15.1676 3.80873 14.09 9.29735 17.9597 13.2214C21.8312 17.1454 27.3005 14.4543 27.3723 14.4193C27.5735 14.3017 27.8024 14.2397 28.0354 14.2397C28.2684 14.2397 28.4973 14.3017 28.6984 14.4193C28.8997 14.5359 29.0669 14.7032 29.1834 14.9045C29.2999 15.1058 29.3616 15.3341 29.3624 15.5667V19.3839C29.6041 20.6276 30.1524 21.7908 30.9565 22.7701C31.5976 23.6285 32.1214 24.5692 32.5156 25.5659C32.7784 26.1563 32.8887 26.8044 32.8379 27.4474" fill="white"/>
<path d="M24 12C25.5913 12 27.1174 11.3679 28.2426 10.2426C29.3679 9.11742 30 7.5913 30 6C30 4.4087 29.3679 2.88258 28.2426 1.75736C27.1174 0.632141 25.5913 0 24 0C22.4087 0 20.8826 0.632141 19.7574 1.75736C18.6321 2.88258 18 4.4087 18 6C18 7.5913 18.6321 9.11742 19.7574 10.2426C20.8826 11.3679 22.4087 12 24 12Z" fill="#FEB71E"/>
</svg>
