<svg width="26" height="26" viewBox="0 0 26 26" fill="none" xmlns="http://www.w3.org/2000/svg">
<path opacity="0.74" d="M9.40234 7C9.41674 4.39 9.53314 2.9764 10.4547 2.0548C11.5095 1 13.2063 1 16.5999 1H17.7999C21.1947 1 22.8915 1 23.9463 2.0548C24.9999 3.1084 24.9999 4.8064 24.9999 8.2V17.8C24.9999 21.1936 24.9999 22.8916 23.9463 23.9452C22.8903 25 21.1947 25 17.7999 25H16.5999C13.2063 25 11.5095 25 10.4547 23.9452C9.53314 23.0236 9.41674 21.61 9.40234 19" stroke="#FF2D2D" stroke-width="1.8" stroke-linecap="round"/>
<path d="M16.6 13H1M1 13L5.2 9.40002M1 13L5.2 16.6" stroke="#FF2D2D" stroke-width="1.8" stroke-linecap="round" stroke-linejoin="round"/>
</svg>
