<svg width="15" height="15" viewBox="0 0 21 20" fill="none" xmlns="http://www.w3.org/2000/svg">
<path opacity="0.4" d="M17.834 13.1043C18.4826 11.5628 18.6319 9.85667 18.2607 8.22589C17.8896 6.59511 17.0167 5.12163 15.7649 4.01257C14.513 2.90351 12.9451 2.21462 11.2814 2.04274C9.61783 1.87087 7.94217 2.22464 6.49 3.05434L5.497 1.31733C7.01468 0.450187 8.73314 -0.00400892 10.4811 2.66595e-05C12.229 0.00406224 13.9453 0.466188 15.459 1.34033C19.949 3.93333 21.669 9.48333 19.577 14.1103L20.919 14.8853L16.753 17.0993L16.588 12.3853L17.834 13.1043ZM3.084 6.89833C2.43514 8.44003 2.28578 10.1463 2.65692 11.7773C3.02805 13.4083 3.90101 14.8819 5.15307 15.9911C6.40513 17.1002 7.97332 17.7891 9.63716 17.9608C11.301 18.1325 12.9768 17.7784 14.429 16.9483L15.421 18.6853C13.9032 19.5523 12.1847 20.0064 10.4368 20.0021C8.68887 19.9979 6.97257 19.5356 5.459 18.6613C0.969 16.0683 -0.751 10.5193 1.342 5.89134L0 5.11833L4.165 2.90334L4.33 7.61734L3.084 6.89833ZM11.874 12.8293L9.045 10.0013L6.217 12.8293L4.802 11.4153L9.045 7.17233L11.873 10.0013L14.702 7.17233L16.116 8.58733L11.874 12.8293Z" fill="white"/>
</svg>
