<svg width="15" height="15" viewBox="0 0 22 23" fill="none" xmlns="http://www.w3.org/2000/svg">
<g opacity="0.4">
<path d="M16.263 17.8158V15.7105M10.9999 17.8158V14.6579M5.73671 17.8158V12.5526M4.68408 6.23682C8.04935 9.67682 12.2988 10.5326 16.4115 9.38629M14.882 7.78629L17.0651 8.85576C17.3241 8.98313 17.3936 9.27682 17.2209 9.51261L15.7651 11.5" stroke="white" stroke-width="1.5" stroke-linecap="round" stroke-linejoin="round"/>
<path d="M1 11.5C1 6.78632 1 4.42842 2.46421 2.96421C3.92842 1.5 6.28526 1.5 11 1.5C15.7137 1.5 18.0716 1.5 19.5358 2.96421C21 4.42842 21 6.78526 21 11.5C21 16.2137 21 18.5716 19.5358 20.0358C18.0716 21.5 15.7147 21.5 11 21.5C6.28632 21.5 3.92842 21.5 2.46421 20.0358C1 18.5716 1 16.2147 1 11.5Z" stroke="white" stroke-width="1.5" stroke-linecap="round" stroke-linejoin="round"/>
</g>
</svg>
